<svg width="108" height="108" viewBox="0 0 108 108" fill="none" xmlns="http://www.w3.org/2000/svg">
<path fill-rule="evenodd" clip-rule="evenodd" d="M51.7677 28.9526C48.6144 27.1562 46.3675 25.9547 43.2218 26.0013C40.7875 26.0373 37.6926 26.8398 34.5457 28.0073C31.5428 29.1214 28.7886 30.4544 27 31.382V65.4848C27.4381 65.2847 27.8927 65.0817 28.3612 64.8785C32.4307 63.1129 38.0899 61.0764 43.1034 61.0021C48.5699 60.9212 52.5068 63.1654 55.5582 64.9048C55.615 64.9372 55.6715 64.9694 55.7276 65.0014C58.8936 66.8049 61.1468 68.0247 64.3044 68.0018C66.8146 67.9836 70.0051 67.1792 73.2412 66.0049C76.3332 64.8828 79.168 63.5351 81 62.6015V28.8954C81 28.8806 80.9996 28.8804 80.9988 28.88C80.9985 28.8799 80.9983 28.8797 80.9979 28.8792C80.9897 28.8654 80.9563 28.8198 80.8789 28.7724C80.7054 28.6661 80.5436 28.6762 80.4441 28.7201C76.1667 30.6092 69.8551 32.9618 64.3623 33.0016C58.9367 33.0409 55.019 30.8067 51.9867 29.0774C51.9132 29.0355 51.8402 28.9939 51.7677 28.9526ZM27 74.382C28.1625 73.7791 29.7447 72.9987 31.5453 72.2175C35.4718 70.514 39.8939 69.0505 43.2218 69.0013C46.3675 68.9547 48.6144 70.1562 51.7677 71.9526C51.8402 71.9939 51.9132 72.0355 51.9867 72.0774C55.019 73.8067 58.9367 76.0409 64.3623 76.0016C68.2391 75.9735 72.4482 74.8031 75.9702 73.525C79.5619 72.2216 82.782 70.6771 84.7772 69.6554C87.4612 68.2808 89 65.5364 89 62.6807V28.8954C89 22.662 82.4135 19.105 77.2123 21.402C73.0278 23.25 68.0225 24.9749 64.3044 25.0018C61.1468 25.0247 58.8936 23.8049 55.7276 22.0014C55.6715 21.9694 55.615 21.9372 55.5582 21.9048C52.5068 20.1654 48.5699 17.9212 43.1034 18.0021C39.305 18.0584 35.1958 19.2333 31.763 20.5068C28.261 21.8061 25.1221 23.339 23.1703 24.3564C20.5133 25.7414 19 28.47 19 31.3024V86C19 88.2091 20.7909 90 23 90C25.2091 90 27 88.2091 27 86V74.382ZM27 31.3017C27 31.3012 27 31.3017 27 31.3017V31.3017Z" fill="#1B1B1B"/>
</svg>
