<svg width="108" height="108" viewBox="0 0 108 108" fill="none" xmlns="http://www.w3.org/2000/svg">
<path fill-rule="evenodd" clip-rule="evenodd" d="M22.4164 53.1659L26.8054 30H81.1938L85.5828 53.1659H22.4164ZM25.1487 22C22.2657 22 19.7902 24.0505 19.2536 26.8831L14.1067 54.049C13.4065 57.7447 16.2404 61.1659 20.0019 61.1659H20.4767V80.0012C20.4767 83.3149 23.163 86.0012 26.4767 86.0012H55.8721C59.1858 86.0012 61.8721 83.3149 61.8721 80.0012V61.1659H79.5236V82.0012C79.5236 84.2103 81.3145 86.0012 83.5236 86.0012C85.7327 86.0012 87.5236 84.2103 87.5236 82.0012V61.1659H87.9973C91.7588 61.1659 94.5926 57.7447 93.8924 54.049L88.7456 26.8831C88.2089 24.0505 85.7335 22 82.8505 22H25.1487ZM53.8721 61.1659H28.4767V78.0012H53.8721V61.1659Z" fill="#1B1B1B"/>
</svg>
