<svg width="108" height="108" viewBox="0 0 108 108" fill="none" xmlns="http://www.w3.org/2000/svg">
<path fill-rule="evenodd" clip-rule="evenodd" d="M28 14C24.6863 14 22 16.6863 22 20V88C22 91.3137 24.6863 94 28 94H80C83.3137 94 86 91.3137 86 88V20C86 16.6863 83.3137 14 80 14H68H53H28ZM50 22H30V86H78V22H71V46.6263C71 49.1821 68.1515 50.7066 66.025 49.2889L60.5 45.6056L54.975 49.2889C52.8485 50.7066 50 49.1821 50 46.6263V22ZM65 22V41.3944L62.275 39.5778C61.2002 38.8612 59.7998 38.8612 58.725 39.5778L56 41.3944V22H65Z" fill="#1B1B1B"/>
</svg>
