<svg width="current" height="current" viewBox="0 0 48 48" fill="none" xmlns="http://www.w3.org/2000/svg">
<path fill-rule="evenodd" clip-rule="evenodd" d="M32.6367 14.2837C32.0423 13.7553 31.1321 13.8088 30.6037 14.4033L24.0576 21.7677C22.926 23.0407 22.926 24.9591 24.0576 26.2322L30.6037 33.5966C31.1321 34.191 32.0423 34.2446 32.6367 33.7162C33.2311 33.1878 33.2846 32.2777 32.7562 31.6833L26.2101 24.3188C26.0484 24.137 26.0484 23.8629 26.2101 23.681L32.7562 16.3166C33.2846 15.7222 33.2311 14.812 32.6367 14.2837Z" fill="current"/>
<path fill-rule="evenodd" clip-rule="evenodd" d="M24.9567 14.2837C24.3623 13.7553 23.4521 13.8088 22.9237 14.4033L16.3776 21.7677C15.246 23.0407 15.246 24.9591 16.3776 26.2322L22.9237 33.5966C23.4521 34.191 24.3623 34.2446 24.9567 33.7162C25.5511 33.1878 25.6046 32.2777 25.0763 31.6833L18.5301 24.3188C18.3684 24.137 18.3684 23.8629 18.5301 23.681L25.0763 16.3166C25.6046 15.7222 25.5511 14.812 24.9567 14.2837Z" fill="current"/>
</svg>
