<svg width="16" height="17" viewBox="0 0 16 17" fill="none" xmlns="http://www.w3.org/2000/svg">
<path d="M2 13.8333H14V8.5C14 7.96957 13.7893 7.46086 13.4142 7.08579C13.0391 6.71071 12.5304 6.5 12 6.5H4C3.46957 6.5 2.96086 6.71071 2.58579 7.08579C2.21071 7.46086 2 7.96957 2 8.5V13.8333Z" stroke="black" stroke-linecap="round" stroke-linejoin="round"/>
<path d="M2 10.3686C2.208 10.4586 2.436 10.5046 2.66667 10.4999C2.92633 10.5054 3.18342 10.4475 3.41572 10.3314C3.64802 10.2152 3.84855 10.0443 4 9.83328C4.15145 9.62228 4.35198 9.45133 4.58428 9.33518C4.81658 9.21903 5.07367 9.16117 5.33333 9.16661C5.593 9.16117 5.85008 9.21903 6.08238 9.33518C6.31469 9.45133 6.51522 9.62228 6.66667 9.83328C6.81811 10.0443 7.01865 10.2152 7.25095 10.3314C7.48325 10.4475 7.74034 10.5054 8 10.4999C8.25966 10.5054 8.51675 10.4475 8.74905 10.3314C8.98135 10.2152 9.18189 10.0443 9.33333 9.83328C9.48478 9.62228 9.68531 9.45133 9.91762 9.33518C10.1499 9.21903 10.407 9.16117 10.6667 9.16661C10.9263 9.16117 11.1834 9.21903 11.4157 9.33518C11.648 9.45133 11.8486 9.62228 12 9.83328C12.1514 10.0443 12.352 10.2152 12.5843 10.3314C12.8166 10.4475 13.0737 10.5054 13.3333 10.4999C13.5667 10.5046 13.7947 10.4586 14 10.3686" stroke="black" stroke-linecap="round" stroke-linejoin="round"/>
<path d="M8.0009 3.16675L8.97757 4.25875C9.15185 4.4461 9.26853 4.67965 9.3137 4.93151C9.35887 5.18338 9.33061 5.44292 9.23229 5.67916C9.13398 5.9154 8.96976 6.11836 8.75925 6.26382C8.54873 6.40928 8.3008 6.49109 8.04506 6.49949C7.78932 6.50788 7.53656 6.44251 7.31695 6.31118C7.09735 6.17984 6.92017 5.98809 6.80657 5.75881C6.69297 5.52953 6.64775 5.2724 6.67629 5.01812C6.70484 4.76383 6.80595 4.52313 6.96757 4.32475L8.0009 3.16675Z" stroke="black" stroke-linecap="round" stroke-linejoin="round"/>
</svg>
