<svg width="current" height="current" viewBox="0 0 96 96" fill="none" xmlns="http://www.w3.org/2000/svg">
<path d="M28 80.0001V35.9001C28 33.7001 28.8 31.8334 30.4 30.3001C32 28.7667 33.9 28.0001 36.1 28.0001H80C82.2 28.0001 84.084 28.7827 85.652 30.3481C87.22 31.9134 88.0027 33.7974 88 36.0001V68.0001L68 88.0001H36C33.8 88.0001 31.9173 87.2174 30.352 85.6521C28.7867 84.0867 28.0027 82.2027 28 80.0001ZM8.1 25.0001C7.7 22.8001 8.13333 20.8174 9.4 19.0521C10.6667 17.2867 12.4 16.2027 14.6 15.8001L58 8.10005C60.2 7.70005 62.184 8.13339 63.952 9.40005C65.72 10.6667 66.8027 12.4001 67.2 14.6001L68.2 20.0001H60L59.3 16.0001L16 23.7001L20 46.3001V74.2001C18.9333 73.6001 18.0173 72.8001 17.252 71.8001C16.4867 70.8001 16.0027 69.6667 15.8 68.4001L8.1 25.0001ZM36 36.0001V80.0001H64V64.0001H80V36.0001H36Z" fill="current"/>
</svg>
