<svg width="current" height="current" viewBox="0 0 96 96" fill="none" xmlns="http://www.w3.org/2000/svg">
<path d="M32 56.4H64C64.9067 56.4 65.6672 56.0928 66.2816 55.4784C66.896 54.864 67.2021 54.1045 67.2 53.2C67.1979 52.2955 66.8907 51.536 66.2784 50.9216C65.6661 50.3072 64.9067 50 64 50H32C31.0933 50 30.3339 50.3072 29.7216 50.9216C29.1093 51.536 28.8021 52.2955 28.8 53.2C28.7979 54.1045 29.1051 54.8651 29.7216 55.4816C30.3381 56.0981 31.0976 56.4043 32 56.4ZM32 46.8H64C64.9067 46.8 65.6672 46.4928 66.2816 45.8784C66.896 45.264 67.2021 44.5045 67.2 43.6C67.1979 42.6955 66.8907 41.936 66.2784 41.3216C65.6661 40.7072 64.9067 40.4 64 40.4H32C31.0933 40.4 30.3339 40.7072 29.7216 41.3216C29.1093 41.936 28.8021 42.6955 28.8 43.6C28.7979 44.5045 29.1051 45.2651 29.7216 45.8816C30.3381 46.4981 31.0976 46.8043 32 46.8ZM32 37.2H64C64.9067 37.2 65.6672 36.8928 66.2816 36.2784C66.896 35.664 67.2021 34.9045 67.2 34C67.1979 33.0955 66.8907 32.336 66.2784 31.7216C65.6661 31.1072 64.9067 30.8 64 30.8H32C31.0933 30.8 30.3339 31.1072 29.7216 31.7216C29.1093 32.336 28.8021 33.0955 28.8 34C28.7979 34.9045 29.1051 35.6651 29.7216 36.2816C30.3381 36.8981 31.0976 37.2043 32 37.2ZM22.4 69.2C20.64 69.2 19.1339 68.5739 17.8816 67.3216C16.6293 66.0693 16.0021 64.5621 16 62.8V24.4C16 22.64 16.6272 21.1339 17.8816 19.8816C19.136 18.6293 20.6421 18.0021 22.4 18H73.6C75.36 18 76.8672 18.6272 78.1216 19.8816C79.376 21.136 80.0021 22.6421 80 24.4V74.24C80 75.68 79.3472 76.6805 78.0416 77.2416C76.736 77.8027 75.5755 77.5755 74.56 76.56L67.2 69.2H22.4ZM69.92 62.8L73.6 66.4V24.4H22.4V62.8H69.92Z" fill="current"/>
</svg>
