<svg width="current" height="current" viewBox="0 0 108 108" fill="none" xmlns="http://www.w3.org/2000/svg">
<path fill-rule="evenodd" clip-rule="evenodd" d="M68.3922 18C70.6013 18 72.3922 19.7909 72.3922 22V26.2758H82.9989C86.3126 26.2758 88.9989 28.9621 88.9989 32.2758V83.9992C88.9989 87.3129 86.3126 89.9992 82.9989 89.9992H25C21.6863 89.9992 19 87.3129 19 83.9992V32.2758C19 28.962 21.6863 26.2758 25 26.2758H35.6068V22.5516C35.6068 20.3425 37.3977 18.5516 39.6068 18.5516C41.816 18.5516 43.6068 20.3425 43.6068 22.5516V26.2758H64.3922V22C64.3922 19.7909 66.183 18 68.3922 18ZM64.3922 39.655V34.2758H43.6068V40.2066C43.6068 42.4157 41.816 44.2066 39.6068 44.2066C37.3977 44.2066 35.6068 42.4157 35.6068 40.2066V34.2758H27V47.2638C27.1407 47.2488 27.2837 47.2411 27.4284 47.2411H80.5702C80.715 47.2411 80.8581 47.2488 80.9989 47.2638V34.2758H72.3922V39.655C72.3922 41.8641 70.6013 43.655 68.3922 43.655C66.183 43.655 64.3922 41.8641 64.3922 39.655ZM80.9989 55.2184C80.8581 55.2334 80.715 55.2411 80.5702 55.2411H27.4284C27.2837 55.2411 27.1407 55.2334 27 55.2184V81.9992H80.9989V55.2184Z" fill="current"/>
</svg>
