<svg width="current" height="current" viewBox="0 0 96 96" fill="none" xmlns="http://www.w3.org/2000/svg">
<path d="M48 68C46.9789 67.9949 45.9717 67.7625 45.0515 67.3197C44.1313 66.8769 43.3212 66.2348 42.68 65.44L25.84 45.04C24.856 43.8119 24.2368 42.332 24.0529 40.7691C23.869 39.2061 24.1279 37.623 24.8 36.2C25.3452 34.9633 26.2347 33.9097 27.3625 33.1649C28.4903 32.4201 29.8086 32.0157 31.16 32H64.84C66.1914 32.0157 67.5098 32.4201 68.6376 33.1649C69.7653 33.9097 70.6549 34.9633 71.2 36.2C71.8722 37.623 72.131 39.2061 71.9472 40.7691C71.7633 42.332 71.1441 43.8119 70.16 45.04L53.32 65.44C52.6788 66.2348 51.8688 66.8769 50.9486 67.3197C50.0284 67.7625 49.0212 67.9949 48 68Z" fill="current"/>
</svg>
