<svg width="current" height="current" viewBox="0 0 32 33" fill="none" xmlns="http://www.w3.org/2000/svg">
<path d="M32.0001 16.5C32.0001 7.6635 24.8366 0.5 16.0001 0.5C7.16362 0.5 0.00012207 7.6635 0.00012207 16.5C0.00012207 24.486 5.85112 31.1054 13.5001 32.3056V21.125H9.43762V16.5H13.5001V12.975C13.5001 8.965 15.8889 6.75 19.5436 6.75C21.2941 6.75 23.1251 7.0625 23.1251 7.0625V11H21.1076C19.12 11 18.5001 12.2334 18.5001 13.4987V16.5H22.9376L22.2282 21.125H18.5001V32.3056C26.1491 31.1054 32.0001 24.4861 32.0001 16.5Z" fill="#1877F2"/>
<path d="M22.2282 21.125L22.9376 16.5H18.5001V13.4987C18.5001 12.2332 19.12 11 21.1076 11H23.1251V7.0625C23.1251 7.0625 21.2941 6.75 19.5435 6.75C15.8889 6.75 13.5001 8.965 13.5001 12.975V16.5H9.43762V21.125H13.5001V32.3056C14.3271 32.4352 15.163 32.5002 16.0001 32.5C16.8372 32.5002 17.6731 32.4352 18.5001 32.3056V21.125H22.2282Z" fill="white"/>
</svg>
