<svg width="16" height="17" viewBox="0 0 16 17" fill="none" xmlns="http://www.w3.org/2000/svg">
<path d="M3.33398 9.83333C3.33398 10.7174 3.68517 11.5652 4.3103 12.1904C4.93542 12.8155 5.78326 13.1667 6.66732 13.1667C7.55137 13.1667 8.39922 12.8155 9.02434 12.1904C9.64946 11.5652 10.0007 10.7174 10.0007 9.83333C10.0007 8.94928 9.64946 8.10143 9.02434 7.47631C8.39922 6.85119 7.55137 6.5 6.66732 6.5C5.78326 6.5 4.93542 6.85119 4.3103 7.47631C3.68517 8.10143 3.33398 8.94928 3.33398 9.83333Z" stroke="black" stroke-linecap="round" stroke-linejoin="round"/>
<path d="M12.6664 3.83325L9.06641 7.43325" stroke="black" stroke-linecap="round" stroke-linejoin="round"/>
<path d="M12.6673 3.83325H9.33398" stroke="black" stroke-linecap="round" stroke-linejoin="round"/>
<path d="M12.666 3.83325V7.16659" stroke="black" stroke-linecap="round" stroke-linejoin="round"/>
</svg>
