<svg width="32" height="33" viewBox="0 0 32 33" fill="none" xmlns="http://www.w3.org/2000/svg">
<path d="M16.0001 3.1665C14.2491 3.1665 12.5153 3.51138 10.8976 4.18144C9.27996 4.85151 7.81011 5.83363 6.57199 7.07175C4.07151 9.57223 2.66675 12.9636 2.66675 16.4998C2.66675 22.3932 6.49341 27.3932 11.7867 29.1665C12.4534 29.2732 12.6667 28.8598 12.6667 28.4998V26.2465C8.97341 27.0465 8.18675 24.4598 8.18675 24.4598C7.57341 22.9132 6.70675 22.4998 6.70675 22.4998C5.49342 21.6732 6.80008 21.6998 6.80008 21.6998C8.13341 21.7932 8.84008 23.0732 8.84008 23.0732C10.0001 25.0998 11.9601 24.4998 12.7201 24.1798C12.8401 23.3132 13.1867 22.7265 13.5601 22.3932C10.6001 22.0598 7.49341 20.9132 7.49341 15.8332C7.49341 14.3532 8.00008 13.1665 8.86675 12.2198C8.73342 11.8865 8.26675 10.4998 9.00008 8.69984C9.00008 8.69984 10.1201 8.33984 12.6667 10.0598C13.7201 9.7665 14.8667 9.61984 16.0001 9.61984C17.1334 9.61984 18.2801 9.7665 19.3334 10.0598C21.8801 8.33984 23.0001 8.69984 23.0001 8.69984C23.7334 10.4998 23.2667 11.8865 23.1334 12.2198C24.0001 13.1665 24.5067 14.3532 24.5067 15.8332C24.5067 20.9265 21.3867 22.0465 18.4134 22.3798C18.8934 22.7932 19.3334 23.6065 19.3334 24.8465V28.4998C19.3334 28.8598 19.5467 29.2865 20.2267 29.1665C25.5201 27.3798 29.3334 22.3932 29.3334 16.4998C29.3334 14.7489 28.9885 13.0151 28.3185 11.3974C27.6484 9.77972 26.6663 8.30986 25.4282 7.07175C24.1901 5.83363 22.7202 4.85151 21.1025 4.18144C19.4849 3.51138 17.751 3.1665 16.0001 3.1665Z" fill="black"/>
</svg>
