<svg width="current" height="current" viewBox="0 0 32 33" fill="none" xmlns="http://www.w3.org/2000/svg">
<path d="M29.0741 13.8885H28.0001V13.8332H16.0001V19.1665H23.5355C22.4361 22.2712 19.4821 24.4998 16.0001 24.4998C11.5821 24.4998 8.00014 20.9178 8.00014 16.4998C8.00014 12.0818 11.5821 8.49984 16.0001 8.49984C18.0395 8.49984 19.8948 9.26917 21.3075 10.5258L25.0788 6.7545C22.6975 4.53517 19.5121 3.1665 16.0001 3.1665C8.63681 3.1665 2.66681 9.1365 2.66681 16.4998C2.66681 23.8632 8.63681 29.8332 16.0001 29.8332C23.3635 29.8332 29.3335 23.8632 29.3335 16.4998C29.3335 15.6058 29.2415 14.7332 29.0741 13.8885Z" fill="#FFC107"/>
<path d="M4.2041 10.2938L8.58477 13.5065C9.7701 10.5718 12.6408 8.49984 16.0001 8.49984C18.0394 8.49984 19.8948 9.26917 21.3074 10.5258L25.0788 6.7545C22.6974 4.53517 19.5121 3.1665 16.0001 3.1665C10.8788 3.1665 6.43743 6.05784 4.2041 10.2938Z" fill="#FF3D00"/>
<path d="M16.0001 29.8333C19.4441 29.8333 22.5735 28.5153 24.9395 26.372L20.8128 22.88C19.4294 23.9327 17.7385 24.5018 16.0001 24.5C12.5321 24.5 9.58746 22.2886 8.47813 19.2026L4.13013 22.5526C6.33679 26.8706 10.8181 29.8333 16.0001 29.8333Z" fill="#4CAF50"/>
<path d="M29.0741 13.8888H28.0001V13.8335H16.0001V19.1668H23.5355C23.0096 20.6444 22.0624 21.9356 20.8108 22.8808L20.8128 22.8795L24.9395 26.3715C24.6475 26.6368 29.3335 23.1668 29.3335 16.5002C29.3335 15.6062 29.2415 14.7335 29.0741 13.8888Z" fill="#1976D2"/>
</svg>
