<svg width="current" height="current" viewBox="0 0 32 33" fill="none" xmlns="http://www.w3.org/2000/svg">
<rect x="4.66675" y="10.5" width="22.3333" height="9.66667" fill="#FEE500"/>
<path d="M16.0001 4.5C23.7335 4.5 30.0015 9.38533 30.0015 15.4133C30.0015 21.44 23.7335 26.3253 16.0015 26.3253C15.2316 26.324 14.4626 26.275 13.6988 26.1787L7.82147 30.0227C7.15347 30.376 6.91747 30.3373 7.19213 29.472L8.38146 24.568C4.54146 22.6213 2.00146 19.248 2.00146 15.4133C2.00146 9.38667 8.26813 4.5 16.0015 4.5M23.8788 15.2467L25.8388 13.348C25.9519 13.2305 26.015 13.0738 26.0148 12.9107C26.0146 12.7477 25.9511 12.5911 25.8377 12.4739C25.7244 12.3567 25.5699 12.2881 25.407 12.2825C25.244 12.2769 25.0853 12.3348 24.9641 12.444L22.3935 14.932V12.876C22.3935 12.7091 22.3272 12.549 22.2091 12.431C22.0911 12.313 21.931 12.2467 21.7641 12.2467C21.5972 12.2467 21.4371 12.313 21.3191 12.431C21.2011 12.549 21.1348 12.7091 21.1348 12.876V16.2853C21.1126 16.3828 21.1126 16.4839 21.1348 16.5813V18.5C21.1348 18.6669 21.2011 18.827 21.3191 18.945C21.4371 19.063 21.5972 19.1293 21.7641 19.1293C21.931 19.1293 22.0911 19.063 22.2091 18.945C22.3272 18.827 22.3935 18.6669 22.3935 18.5V16.6827L22.9628 16.132L24.8668 18.8427C24.9143 18.9103 24.9747 18.968 25.0446 19.0123C25.1144 19.0567 25.1922 19.0868 25.2737 19.101C25.3552 19.1153 25.4387 19.1133 25.5194 19.0953C25.6001 19.0773 25.6765 19.0435 25.7441 18.996C25.8118 18.9485 25.8695 18.8881 25.9138 18.8182C25.9581 18.7484 25.9883 18.6706 26.0025 18.5891C26.0167 18.5076 26.0148 18.4241 25.9968 18.3434C25.9787 18.2627 25.945 18.1863 25.8975 18.1187L23.8788 15.2467ZM19.9348 17.812H17.9881V12.896C17.9807 12.7343 17.9112 12.5816 17.7941 12.4698C17.677 12.358 17.5214 12.2956 17.3595 12.2956C17.1976 12.2956 17.0419 12.358 16.9248 12.4698C16.8077 12.5816 16.7382 12.7343 16.7308 12.896V18.4413C16.7308 18.788 17.0108 19.0707 17.3588 19.0707H19.9348C20.1017 19.0707 20.2618 19.0044 20.3798 18.8863C20.4978 18.7683 20.5641 18.6082 20.5641 18.4413C20.5641 18.2744 20.4978 18.1143 20.3798 17.9963C20.2618 17.8783 20.1017 17.812 19.9348 17.812ZM12.1255 16.3573L13.0535 14.08L13.9041 16.356L12.1255 16.3573ZM15.4895 17.0067L15.4921 16.9853C15.4917 16.8268 15.4312 16.6744 15.3228 16.5587L13.9281 12.8253C13.8697 12.6474 13.7583 12.4916 13.6089 12.3787C13.4595 12.2657 13.2792 12.2011 13.0921 12.1933C12.9038 12.1932 12.7199 12.2501 12.5645 12.3565C12.4091 12.4629 12.2895 12.6138 12.2215 12.7893L10.0055 18.2227C9.94234 18.3772 9.9432 18.5505 10.0078 18.7044C10.0725 18.8583 10.1956 18.9802 10.3501 19.0433C10.5047 19.1065 10.6779 19.1056 10.8318 19.041C10.9858 18.9763 11.1077 18.8532 11.1708 18.6987L11.6135 17.6147H14.3735L14.7708 18.6813C14.7979 18.7611 14.8407 18.8345 14.8968 18.8974C14.9528 18.9603 15.0208 19.0113 15.0969 19.0474C15.173 19.0835 15.2556 19.1039 15.3397 19.1075C15.4238 19.1111 15.5078 19.0978 15.5867 19.0684C15.6656 19.0389 15.7378 18.9939 15.799 18.9361C15.8602 18.8782 15.9092 18.8087 15.943 18.7315C15.9768 18.6544 15.9948 18.5713 15.9959 18.4871C15.997 18.4029 15.9812 18.3193 15.9495 18.2413L15.4895 17.0067ZM11.0588 12.9027C11.0591 12.82 11.0432 12.7381 11.0117 12.6617C10.9803 12.5853 10.9341 12.5158 10.8757 12.4573C10.8174 12.3989 10.748 12.3525 10.6716 12.3209C10.5953 12.2893 10.5134 12.2732 10.4308 12.2733H6.10413C5.93722 12.2733 5.77715 12.3396 5.65913 12.4577C5.5411 12.5757 5.4748 12.7358 5.4748 12.9027C5.4748 13.0696 5.5411 13.2296 5.65913 13.3477C5.77715 13.4657 5.93722 13.532 6.10413 13.532H7.6508V18.5133C7.6508 18.6802 7.7171 18.8403 7.83513 18.9583C7.95315 19.0764 8.11322 19.1427 8.28013 19.1427C8.44704 19.1427 8.60711 19.0764 8.72514 18.9583C8.84316 18.8403 8.90947 18.6802 8.90947 18.5133V13.532H10.4295C10.5122 13.5324 10.5942 13.5163 10.6707 13.4848C10.7472 13.4533 10.8167 13.407 10.8753 13.3485C10.9338 13.29 10.9801 13.2204 11.0116 13.1439C11.0431 13.0674 11.0592 12.9854 11.0588 12.9027Z" fill="black"/>
</svg>
