<svg width="current" height="current" viewBox="0 0 96 96" fill="none" xmlns="http://www.w3.org/2000/svg">
<path fill-rule="evenodd" clip-rule="evenodd" d="M56.972 10.0559C57.832 11.1759 58 12.4039 58 13.2319C58 22.4159 60.432 30.7399 66.384 36.7519C67.4653 37.843 68.5682 38.9126 69.692 39.9599C72.788 42.8679 76.788 46.6279 78.584 51.7199C79.504 54.3359 80 57.1199 80 59.9999C80 76.0199 65.072 87.9999 48 87.9999C35.408 87.9999 24.216 81.5999 19.012 71.8879C17.0437 68.2325 16.0091 64.1475 16 59.9959V56.5439C16 50.4839 16.916 44.4559 18.716 38.6639C19.104 37.3919 19.664 35.8559 20.656 34.7479C21.22 34.1199 22.216 33.2999 23.684 33.1199C25.192 32.9359 26.38 33.5199 27.092 34.0479C28.288 34.9319 29.012 36.2839 29.396 37.0319C29.868 37.9639 30.332 39.0719 30.764 40.1439C31.232 41.2999 31.9 42.4039 32.732 43.4359C33.228 44.0479 33.636 44.5639 34.008 45.0319L34.768 45.9879C35.217 45.3373 35.4924 44.5828 35.568 43.7959L36.352 35.0639C36.76 30.4919 37.6 25.4239 39.488 20.8559C41.392 16.2519 44.452 11.9279 49.4 9.28789C50.28 8.81989 51.884 8.05589 53.644 8.23189C54.728 8.33989 56.028 8.83189 56.972 10.0559ZM50.252 18.5519C48.868 19.9759 47.764 21.7759 46.884 23.9119C45.44 27.4079 44.696 31.5639 44.316 35.7759L43.536 44.5079C43.376 46.2919 42.836 48.0199 41.956 49.5799C40.836 51.5719 38.984 53.4199 36.524 54.1039C33.756 54.8719 30.944 53.9359 29.016 51.5919C28.624 51.1119 28.148 50.5159 27.66 49.9039L26.512 48.4639C25.9718 47.7902 25.4685 47.0878 25.004 46.3599C24.3353 49.7133 23.999 53.1245 24 56.5439V59.9999C24 62.8799 24.728 65.6199 26.064 68.1159C29.712 74.9199 37.992 79.9999 48 79.9999C61.856 79.9999 72 70.4879 72 59.9999C72 58.0439 71.664 56.1599 71.04 54.3799C69.92 51.2199 67.38 48.7999 64 45.5959L63.22 44.8479C62.4013 44.0719 61.5613 43.2492 60.7 42.3799C54.128 35.7399 51.092 27.2599 50.252 18.5519Z" fill="current"/>
<path fill-rule="evenodd" clip-rule="evenodd" d="M52.292 61.4039L56.036 66.8679L56.096 66.9479C58.44 70.1919 57.592 74.7679 54.34 76.9159C53.2753 77.6262 52.024 78.0053 50.744 78.0053C49.4641 78.0053 48.2128 77.6262 47.148 76.9159M52.292 61.4039L52.184 61.6159L52.112 61.7559C50.9172 64.1171 49.1484 66.1403 46.968 67.6399L46.396 68.0319C45.212 68.8479 44.684 69.4519 44.476 69.9319C43.888 71.2679 43.884 72.4679 44.256 73.5319C44.64 74.6279 45.528 75.8439 47.148 76.9159M45.38 57.3039C45.516 56.7359 45.632 55.9999 45.772 55.1319C45.852 54.5986 45.9454 54.0226 46.052 53.4039C46.172 52.7399 46.332 51.8759 46.56 51.1879C46.62 50.9959 46.716 50.7399 46.848 50.4639C46.956 50.2359 47.216 49.7279 47.7 49.2359C48.1265 48.7998 48.6446 48.4641 49.217 48.2532C49.7893 48.0422 50.4014 47.9614 51.0089 48.0166C51.6164 48.0717 52.2039 48.2615 52.7289 48.572C53.2539 48.8826 53.7032 49.3061 54.044 49.8119L62.608 62.3039C67.548 69.1839 65.832 78.9119 58.748 83.5919C56.3753 85.1658 53.5913 86.0052 50.744 86.0052C47.8968 86.0052 45.1128 85.1658 42.74 83.5919C39.916 81.7279 37.764 79.1919 36.704 76.1719C35.632 73.1159 35.784 69.8199 37.144 66.7199C38.268 64.1599 40.312 62.5079 41.864 61.4399L42.436 61.0479C43.512 60.3079 44.384 59.3079 44.972 58.1439L45.184 57.7319L45.316 57.4519L45.38 57.3039Z" fill="current"/>
</svg>
