<svg width="current" height="current" viewBox="0 0 16 17" fill="none" xmlns="http://www.w3.org/2000/svg">
<path d="M5.64337 8.02871C6.3987 7.27338 7.71604 7.27338 8.47137 8.02871L8.9427 8.50004L9.88537 7.55738L9.41404 7.08604C8.78537 6.45671 7.94804 6.10938 7.05737 6.10938C6.1667 6.10938 5.32937 6.45671 4.7007 7.08604L3.28604 8.50004C2.66256 9.12602 2.3125 9.97354 2.3125 10.857C2.3125 11.7405 2.66256 12.5881 3.28604 13.214C3.59522 13.5238 3.9626 13.7694 4.36705 13.9367C4.7715 14.104 5.20503 14.1896 5.6427 14.1887C6.08049 14.1897 6.51414 14.1041 6.91871 13.9368C7.32328 13.7695 7.69077 13.5239 8.00004 13.214L8.47137 12.7427L7.5287 11.8L7.05737 12.2714C6.68168 12.6454 6.17315 12.8554 5.64304 12.8554C5.11292 12.8554 4.60439 12.6454 4.2287 12.2714C3.85437 11.8959 3.64417 11.3873 3.64417 10.857C3.64417 10.3268 3.85437 9.81822 4.2287 9.44271L5.64337 8.02871Z" fill="#1B1B1B"/>
<path d="M8.00057 3.78591L7.52923 4.25725L8.4719 5.19991L8.94323 4.72858C9.31892 4.35457 9.82745 4.1446 10.3576 4.1446C10.8877 4.1446 11.3962 4.35457 11.7719 4.72858C12.1462 5.1041 12.3564 5.61269 12.3564 6.14291C12.3564 6.67314 12.1462 7.18173 11.7719 7.55725L10.3572 8.97125C9.6019 9.72658 8.28457 9.72658 7.52923 8.97125L7.0579 8.49991L6.11523 9.44258L6.58657 9.91391C7.21523 10.5432 8.05257 10.8906 8.94323 10.8906C9.8339 10.8906 10.6712 10.5432 11.2999 9.91391L12.7146 8.49991C13.338 7.87393 13.6881 7.02642 13.6881 6.14291C13.6881 5.25941 13.338 4.4119 12.7146 3.78591C12.0889 3.16178 11.2413 2.81128 10.3576 2.81128C9.47385 2.81128 8.62621 3.16178 8.00057 3.78591Z" fill="#1B1B1B"/>
</svg>
