<svg width="current" height="current" viewBox="0 0 940 358" fill="none" xmlns="http://www.w3.org/2000/svg">
<path d="M133.008 134.535C131.25 117.836 117.773 107.875 96.3867 107.875C74.1211 107.875 61.8164 118.129 61.5234 132.191C61.2305 147.426 77.3438 154.457 95.5078 158.559L114.551 163.246C150.879 171.449 178.125 189.906 178.125 225.355C178.125 264.32 147.656 288.93 96.0938 288.93C44.8242 288.93 12.0117 265.199 10.8398 219.789H53.6133C55.0781 241.176 72.0703 252.016 95.5078 252.016C118.652 252.016 133.594 241.176 133.594 225.355C133.594 211 120.41 204.262 97.2656 198.402L74.1211 192.836C38.3789 184.047 16.4062 166.176 16.4062 135.121C16.4062 96.4492 50.3906 70.9609 96.6797 70.9609C143.555 70.9609 174.609 97.0352 175.195 134.535H133.008Z" fill="#9792E3"/>
<path d="M401.074 179.945C401.074 249.086 358.008 288.93 302.051 288.93C245.508 288.93 202.734 248.793 202.734 179.945C202.734 110.805 245.508 70.9609 302.051 70.9609C358.008 70.9609 401.074 110.805 401.074 179.945ZM356.25 179.945C356.25 134.535 334.863 109.926 302.051 109.926C269.238 109.926 247.559 134.535 247.559 179.945C247.559 225.355 269.238 249.965 302.051 249.965C334.863 249.965 356.25 225.355 356.25 179.945ZM432.715 286V73.8906H476.66V249.672H568.066V286H432.715Z" fill="current"/>
<path d="M780.871 286V73.8906H923.254V110.219H824.816V161.781H915.93V198.109H824.816V249.672H923.547V286H780.871Z" fill="current"/>
<path fill-rule="evenodd" clip-rule="evenodd" d="M756.693 89.6929C757.343 88.1688 756.635 86.4065 755.111 85.7565L721.077 71.2413C719.553 70.5913 717.79 71.2998 717.14 72.8239L658.337 210.7C657.512 212.636 655.001 213.142 653.49 211.678L609.835 169.378C608.645 168.225 606.746 168.255 605.593 169.444L579.846 196.016C578.693 197.206 578.722 199.106 579.912 200.259L660.971 278.802L668.426 286.188C669.931 287.679 672.465 287.183 673.297 285.234L756.693 89.6929Z" fill="#61E786"/>
</svg>
