<svg width="current" height="current" viewBox="0 0 96 96" fill="none" xmlns="http://www.w3.org/2000/svg">
<path d="M69.1394 16C67.7157 16.0039 66.3069 16.2894 64.994 16.8401C63.6811 17.3908 62.4902 18.1959 61.4898 19.2088L19.8643 60.8317L19.7011 61.6556L16.8213 76.1336L16 79.9979L19.8669 79.1766L34.3449 76.2968L35.1662 76.131L76.7917 34.5081C77.8077 33.5097 78.6146 32.319 79.1655 31.0054C79.7163 29.6918 80 28.2816 80 26.8572C80 25.4327 79.7163 24.0226 79.1655 22.709C78.6146 21.3954 77.8077 20.2046 76.7917 19.2062C75.7907 18.1934 74.5993 17.3887 73.286 16.8384C71.9726 16.2881 70.5634 16.0032 69.1394 16ZM69.1394 21.0173C70.4661 21.0173 71.8034 21.6227 73.088 22.9099C75.6492 25.4686 75.6492 28.2457 73.088 30.807L71.1979 32.6154L63.3798 24.8L65.1909 22.9099C66.4781 21.6227 67.8127 21.0173 69.1394 21.0173ZM59.6814 28.5037L67.4942 36.3192L35.6611 68.1497C33.9445 64.7859 31.2079 62.0512 27.843 60.3368L59.6814 28.5037ZM24.4736 64.617C26.0318 65.2433 27.4473 66.1783 28.6348 67.3658C29.8223 68.5533 30.7573 69.9687 31.3835 71.527L22.7441 73.2538L24.4736 64.617Z" fill="current"/>
</svg>
