<svg width="current" height="current" viewBox="0 0 108 108" fill="none" xmlns="http://www.w3.org/2000/svg">
<path fill-rule="evenodd" clip-rule="evenodd" d="M63.8591 33.0525C64.4403 30.9212 63.1838 28.7222 61.0525 28.141C58.9212 27.5597 56.7222 28.8163 56.1409 30.9476L44.1409 74.9476C43.5597 77.0789 44.8162 79.2778 46.9475 79.8591C49.0788 80.4404 51.2778 79.1838 51.8591 77.0525L63.8591 33.0525ZM39.1235 35.5012C40.5035 37.2263 40.2238 39.7435 38.4988 41.1235L22.4031 54L38.4988 66.8766C40.2238 68.2566 40.5035 70.7738 39.1235 72.4988C37.7434 74.2239 35.2263 74.5035 33.5012 73.1235L17.4056 60.247C13.4023 57.0444 13.4023 50.9557 17.4056 47.7531L33.5012 34.8766C35.2263 33.4965 37.7434 33.7762 39.1235 35.5012ZM68.8765 35.5012C67.4965 37.2263 67.7762 39.7435 69.5012 41.1235L85.5969 54L69.5012 66.8766C67.7762 68.2566 67.4965 70.7738 68.8765 72.4988C70.2566 74.2239 72.7737 74.5035 74.4988 73.1235L90.5944 60.247C94.5977 57.0444 94.5977 50.9557 90.5944 47.7531L74.4988 34.8766C72.7737 33.4965 70.2566 33.7762 68.8765 35.5012Z" fill="current"/>
</svg>
