<svg width="49" height="48" viewBox="0 0 49 48" fill="none" xmlns="http://www.w3.org/2000/svg">
<path d="M12.5 0H24.5H36.5L48.5 12V24V36L36.5 48H24.5H12.5L0.5 36V24V12L12.5 0Z" fill="#F03A47"/>
<path d="M13.5 2H24.5H35.5L46.5 13V24V35L35.5 46H24.5H13.5L2.5 35V24V13L13.5 2Z" fill="#F4717A"/>
<path d="M14.5 4H24.5H34.5L44.5 14V24V34L34.5 44H24.5H14.5L4.5 34V24V14L14.5 4Z" fill="#F03A47"/>
<path d="M36.1802 22.5421C36.385 22.7469 36.5 23.0246 36.5 23.3142C36.5 23.6038 36.385 23.8815 36.1802 24.0863L26.6787 33.5879C25.1143 35.1355 23.0008 36.0008 20.8003 35.9944C18.5998 35.9881 16.4914 35.1108 14.9359 33.5542C13.3805 31.9976 12.5047 29.8885 12.5 27.688C12.4953 25.4875 13.3621 23.3746 14.9109 21.8114L21.8776 14.8458C21.9784 14.7415 22.0989 14.6583 22.2321 14.601C22.3654 14.5438 22.5087 14.5137 22.6537 14.5124C22.7987 14.5112 22.9425 14.5388 23.0767 14.5937C23.211 14.6486 23.3329 14.7297 23.4355 14.8323C23.538 14.9348 23.6191 15.0567 23.674 15.191C23.7289 15.3252 23.7565 15.469 23.7553 15.614C23.754 15.759 23.7239 15.9023 23.6667 16.0356C23.6094 16.1688 23.5262 16.2893 23.4219 16.3901L16.4552 23.3524C15.3032 24.5044 14.6561 26.0668 14.6561 27.6959C14.6561 29.325 15.3032 30.8873 16.4552 32.0393C17.6071 33.1912 19.1695 33.8384 20.7986 33.8384C22.4277 33.8384 23.9901 33.1912 25.142 32.0393L34.6436 22.5377C34.8487 22.3359 35.1251 22.2231 35.4128 22.2239C35.7005 22.2247 35.9763 22.3391 36.1802 22.5421ZM23.7605 24.7329C24.3468 25.3191 24.7461 26.0659 24.908 26.8791C25.0698 27.6922 24.9868 28.535 24.6696 29.301C24.3524 30.067 23.8152 30.7217 23.1258 31.1823C22.4365 31.643 21.626 31.8888 20.797 31.8888C19.9679 31.8888 19.1574 31.643 18.4681 31.1823C17.7788 30.7217 17.2415 30.067 16.9243 29.301C16.6071 28.535 16.5241 27.6922 16.686 26.8791C16.8478 26.0659 17.2471 25.3191 17.8335 24.7329C18.6201 23.9481 19.6858 23.5074 20.797 23.5074C21.9081 23.5074 22.9739 23.9481 23.7605 24.7329ZM22.2162 26.2772C22.0297 26.0907 21.8084 25.9428 21.5648 25.8419C21.3212 25.741 21.0601 25.6891 20.7964 25.6891C20.5327 25.6891 20.2716 25.741 20.028 25.8419C19.7844 25.9428 19.5631 26.0907 19.3766 26.2772C19.1902 26.4636 19.0423 26.685 18.9414 26.9286C18.8405 27.1722 18.7886 27.4333 18.7886 27.6969C18.7886 27.9606 18.8405 28.2217 18.9414 28.4653C19.0423 28.7089 19.1902 28.9303 19.3766 29.1167C19.7588 29.4825 20.2674 29.6867 20.7964 29.6867C21.3254 29.6867 21.834 29.4825 22.2162 29.1167C22.5923 28.74 22.8036 28.2293 22.8036 27.6969C22.8036 27.1646 22.5923 26.6539 22.2162 26.2772ZM31.3596 12.3142L22.9501 20.7237C22.8409 20.8234 22.7531 20.9444 22.692 21.0791C22.6309 21.2138 22.5978 21.3596 22.5948 21.5075C22.5917 21.6554 22.6188 21.8023 22.6742 21.9395C22.7297 22.0766 22.8124 22.2011 22.9175 22.3053C23.0225 22.4095 23.1475 22.4912 23.2851 22.5456C23.4227 22.6 23.5699 22.6259 23.7177 22.6217C23.8656 22.6175 24.0111 22.5833 24.1454 22.5212C24.2796 22.459 24.3998 22.3703 24.4988 22.2603L32.9082 13.8509C33.1071 13.6449 33.2172 13.369 33.2147 13.0826C33.2122 12.7963 33.0974 12.5224 32.8949 12.3199C32.6924 12.1174 32.4185 12.0025 32.1321 12C31.8458 11.9976 31.5699 12.1076 31.3639 12.3066L31.3596 12.3142ZM29.1753 22.5956C29.3801 22.8003 29.6578 22.9153 29.9474 22.9153C30.237 22.9153 30.5148 22.8003 30.7196 22.5956L35.0881 18.227C35.1924 18.1263 35.2756 18.0058 35.3329 17.8725C35.3901 17.7393 35.4202 17.596 35.4215 17.451C35.4227 17.306 35.3951 17.1621 35.3402 17.0279C35.2853 16.8937 35.2042 16.7718 35.1016 16.6692C34.9991 16.5667 34.8772 16.4856 34.7429 16.4307C34.6087 16.3758 34.4649 16.3481 34.3199 16.3494C34.1749 16.3506 34.0316 16.3808 33.8983 16.438C33.7651 16.4953 33.6446 16.5785 33.5438 16.6828L29.1753 21.0513C28.9705 21.2561 28.8555 21.5338 28.8555 21.8234C28.8555 22.113 28.9705 22.3908 29.1753 22.5956ZM15.7497 16.3628C15.7497 16.1468 15.6856 15.9356 15.5656 15.756C15.4456 15.5764 15.275 15.4364 15.0755 15.3538C14.8759 15.2711 14.6563 15.2495 14.4445 15.2916C14.2326 15.3338 14.038 15.4378 13.8853 15.5905C13.7325 15.7432 13.6285 15.9378 13.5864 16.1497C13.5442 16.3616 13.5659 16.5811 13.6485 16.7807C13.7312 16.9803 13.8712 17.1508 14.0508 17.2708C14.2304 17.3908 14.4415 17.4549 14.6575 17.4549C14.9472 17.4549 15.225 17.3398 15.4298 17.135C15.6346 16.9302 15.7497 16.6524 15.7497 16.3628ZM34.316 32.1987C34.316 31.8747 34.2199 31.558 34.0399 31.2886C33.8599 31.0192 33.604 30.8092 33.3047 30.6852C33.0053 30.5612 32.6759 30.5288 32.3582 30.592C32.0404 30.6552 31.7485 30.8112 31.5194 31.0403C31.2903 31.2695 31.1342 31.5614 31.071 31.8791C31.0078 32.1969 31.0403 32.5263 31.1643 32.8256C31.2883 33.125 31.4982 33.3808 31.7676 33.5608C32.037 33.7409 32.3538 33.8369 32.6778 33.8369C33.1122 33.8369 33.5289 33.6643 33.8361 33.3571C34.1434 33.0499 34.316 32.6332 34.316 32.1987Z" fill="white"/>
<path d="M13.5 2H35.5L34.5 4H14.5L13.5 2Z" fill="#6C65D7"/>
<path d="M35.5 2L46.5 13L44.5 14L34.5 4L35.5 2Z" fill="#6C65D7"/>
</svg>
