<svg width="48" height="48" viewBox="0 0 48 48" fill="none" xmlns="http://www.w3.org/2000/svg">
<path d="M12 0H24H36L48 12V24V36L36 48H24H12L0 36V24V12L12 0Z" fill="#C1D8EA"/>
<path d="M13 2H24H35L46 13V24V35L35 46H24H13L2 35V24V13L13 2Z" fill="#E8F1F7"/>
<path d="M14 4H24H34L44 14V24V34L34 44H24H14L4 34V24V14L14 4Z" fill="#C1D8EA"/>
<path d="M35.8922 31.0058L35.8739 30.9579C35.7061 30.5614 35.3191 30.2875 34.8695 30.2875C34.72 30.2875 34.5773 30.3179 34.4469 30.3727L34.4539 30.3701C33.3938 30.8231 32.1599 31.0866 30.865 31.0866C25.7022 31.0866 21.516 26.9013 21.516 21.7376C21.516 17.8609 23.8752 14.5356 27.2371 13.119L27.2988 13.0964L27.491 13.0155C27.8771 12.8425 28.1406 12.4625 28.1406 12.0198C28.1406 11.4764 27.7423 11.0268 27.2214 10.9459L27.2153 10.945C26.6275 10.8529 25.9501 10.7998 25.2596 10.7998C17.9367 10.7998 12 16.7365 12 24.0594C12 31.3823 17.9367 37.319 25.2596 37.319C29.5293 37.319 33.3277 35.3007 35.753 32.1667L35.7756 32.1362C35.9156 31.9554 36 31.7249 36 31.4753C36 31.304 35.96 31.1423 35.8896 30.9988L35.8922 31.0058ZM29.4937 34.3059C28.2415 34.8381 26.7849 35.1476 25.2561 35.1476C19.1333 35.1476 14.1688 30.184 14.1688 24.0603C14.1688 18.6784 18.0037 14.1912 23.0908 13.1842L23.1613 13.1729C20.8186 15.2904 19.3533 18.3401 19.3533 21.7324C19.3533 28.097 24.5126 33.2563 30.8772 33.2563C31.0876 33.2563 31.2964 33.2511 31.5033 33.2397L31.4746 33.2406C30.905 33.6319 30.2537 33.9885 29.5667 34.278L29.4937 34.3059Z" fill="white"/>
<path d="M13 2H35L34 4H14L13 2Z" fill="#48ACF0"/>
<path d="M35 2L46 13L44 14L34 4L35 2Z" fill="#48ACF0"/>
<path d="M46 13V35L44 34V14L46 13Z" fill="#48ACF0"/>
<path d="M46 35L35 46L34 44L44 34L46 35Z" fill="#48ACF0"/>
<path d="M35 46H13L14 44H34L35 46Z" fill="#48ACF0"/>
<path d="M13 46L2 35L4 34L14 44L13 46Z" fill="#48ACF0"/>
</svg>
