<svg width="48" height="48" viewBox="0 0 48 48" fill="none" xmlns="http://www.w3.org/2000/svg">
<path d="M12 0H24H36L48 12V24V36L36 48H24H12L0 36V24V12L12 0Z" fill="url(#paint0_linear_74_1589)"/>
<path d="M12 0H24H36L48 12V24V36L36 48H24H12L0 36V24V12L12 0Z" fill="url(#paint1_linear_74_1589)"/>
<path fill-rule="evenodd" clip-rule="evenodd" d="M31.6892 26.1314C29.9814 28.3213 28.1958 30.0742 26.1287 31.6846C27.8413 32.6736 31.8593 34.4659 33.1611 33.1644C34.0497 32.276 33.6413 29.497 31.6892 26.1314ZM24.0018 30.3018C26.3803 28.5621 28.5575 26.3852 30.2964 24.0074C28.5647 21.6379 26.3886 19.4589 24.0018 17.7132C21.6066 19.4637 19.4341 21.6451 17.706 24.0074C19.4449 26.3864 21.6234 28.5621 24.0018 30.3018ZM21.8736 31.6846C19.8018 30.0695 18.0162 28.3165 16.3132 26.1314C14.3611 29.497 13.9527 32.276 14.8413 33.1644C16.1311 34.4527 20.1144 32.7023 21.8736 31.6846ZM16.3132 21.8833C18.0197 19.6935 19.8054 17.942 21.8736 16.3304C20.1635 15.3415 16.1443 13.5477 14.8413 14.8503C13.9527 15.7387 14.3611 18.5177 16.3132 21.8833ZM26.1287 16.3304C28.2006 17.9444 29.985 19.6971 31.6892 21.8833C36.0222 14.4109 32.7455 12.5062 26.1287 16.3304ZM33.197 24.0074C39.718 34.1964 34.1132 39.6777 24.0018 33.2086C13.9144 39.6621 8.26284 34.23 14.8066 24.0074C8.3299 13.8889 13.791 8.27359 24.0018 14.8061C34.1096 8.33945 39.724 13.8099 33.197 24.0074ZM25.2785 22.7347C25.9791 23.4363 25.9791 24.5738 25.2785 25.2742C24.5767 25.9758 23.4389 25.9758 22.7371 25.2742C22.0353 24.5738 22.0353 23.4363 22.7371 22.7347C23.4389 22.0331 24.5767 22.0331 25.2785 22.7347Z" fill="white"/>
<defs>
<linearGradient id="paint0_linear_74_1589" x1="5.5" y1="12.7432" x2="42.5" y2="33.6907" gradientUnits="userSpaceOnUse">
<stop stop-color="#837DDE"/>
<stop offset="1" stop-color="#1EC34C"/>
</linearGradient>
<linearGradient id="paint1_linear_74_1589" x1="5.5" y1="12.7432" x2="42.5" y2="33.6907" gradientUnits="userSpaceOnUse">
<stop stop-color="#837DDE"/>
<stop offset="1" stop-color="#1EC34C"/>
</linearGradient>
</defs>
</svg>
