<svg width="49" height="48" viewBox="0 0 49 48" fill="none" xmlns="http://www.w3.org/2000/svg">
<path d="M12.5 0H24.5H36.5L48.5 12V24V36L36.5 48H24.5H12.5L0.5 36V24V12L12.5 0Z" fill="#48ACF0"/>
<path d="M13.5 2H24.5H35.5L46.5 13V24V35L35.5 46H24.5H13.5L2.5 35V24V13L13.5 2Z" fill="#97D0F7"/>
<path d="M14.5 4H24.5H34.5L44.5 14V24V34L34.5 44H24.5H14.5L4.5 34V24V14L14.5 4Z" fill="#48ACF0"/>
<path fill-rule="evenodd" clip-rule="evenodd" d="M30.644 15.7056C34.6124 15.0505 37.6982 15.6551 38.6955 17.7939C39.6928 19.9326 38.1727 22.685 35.1204 25.3038C34.5612 30.3976 30.2441 34.3606 25.0014 34.3606C22.914 34.3606 20.9734 33.7324 19.3582 32.6547C15.3888 33.3103 12.302 32.7058 11.3045 30.5666C10.3068 28.4272 11.8283 25.6737 14.8827 23.0542C15.4431 17.9617 19.7596 14 25.0014 14C27.0885 14 29.029 14.6281 30.644 15.7056ZM33.0854 17.9918C33.9701 19.1457 34.6133 20.4945 34.9395 21.9627C36.1483 20.6626 36.7 19.5366 36.3889 18.8695C36.0778 18.2022 34.8596 17.901 33.0854 17.9918ZM16.9173 30.3687C16.0321 29.2141 15.3888 27.8645 15.0628 26.3955C13.8523 27.6966 13.2998 28.8236 13.6111 29.491C13.9224 30.1587 15.1416 30.4599 16.9173 30.3687ZM32.6351 24.0261C32.553 19.8805 29.1667 16.5451 25.0014 16.5451C20.7846 16.5451 17.3662 19.9635 17.3662 24.1803C17.3662 26.4731 18.3768 28.5298 19.9769 29.9294C21.9717 29.4919 24.2658 28.7349 26.6134 27.6402C28.962 26.545 31.0173 25.2736 32.6351 24.0261ZM31.751 27.7527C30.5082 28.5292 29.1438 29.2684 27.689 29.9468C26.2351 30.6248 24.7928 31.1945 23.4 31.6473C23.9164 31.7575 24.4521 31.8155 25.0014 31.8155C27.9275 31.8155 30.4692 30.1694 31.751 27.7527Z" fill="white"/>
<path d="M13.5 2H35.5L34.5 4H14.5L13.5 2Z" fill="#FFCC0A"/>
<path d="M35.5 2L46.5 13L44.5 14L34.5 4L35.5 2Z" fill="#FFCC0A"/>
<path d="M46.5 13V35L44.5 34V14L46.5 13Z" fill="#FFCC0A"/>
<path d="M46.5 35L35.5 46L34.5 44L44.5 34L46.5 35Z" fill="#FFCC0A"/>
<path d="M35.5 46H13.5L14.5 44H34.5L35.5 46Z" fill="#FFCC0A"/>
<path d="M13.5 46L2.5 35L4.5 34L14.5 44L13.5 46Z" fill="#FFCC0A"/>
<path d="M2.5 35V13L4.5 14V34L2.5 35Z" fill="#FFCC0A"/>
<path d="M2.5 13L13.5 2L14.5 4L4.5 14L2.5 13Z" fill="#FFCC0A"/>
</svg>
