<svg width="48" height="48" viewBox="0 0 48 48" fill="none" xmlns="http://www.w3.org/2000/svg">
<path d="M12 0H24H36L48 12V24V36L36 48H24H12L0 36V24V12L12 0Z" fill="#61E786"/>
<path d="M17.0526 11C20.4505 11 23.3987 12.9721 24.8804 15.8633C26.3672 13.7079 28.8126 12.3 31.5789 12.3H36V15.55C36 20.217 32.3242 24 27.7895 24H25.8947V25.3H32.2105V34.4C32.2105 35.8365 31.08 37 29.6842 37H19.5789C18.1832 37 17.0526 35.8365 17.0526 34.4V25.3H23.3684V22.7H20.8421C15.9587 22.7 12 18.6258 12 13.6V11H17.0526ZM29.6842 27.9H19.5789V34.4H29.6842V27.9ZM33.4737 14.9H31.5789C28.44 14.9 25.8947 17.5195 25.8947 20.75V21.4H27.7895C30.9284 21.4 33.4737 18.7805 33.4737 15.55V14.9ZM17.0526 13.6H14.5263C14.5263 17.1893 17.3545 20.1 20.8421 20.1H23.3684C23.3684 16.5107 20.5402 13.6 17.0526 13.6Z" fill="white"/>
</svg>
