<svg width="49" height="48" viewBox="0 0 49 48" fill="none" xmlns="http://www.w3.org/2000/svg">
<path d="M12.5 0H24.5H36.5L48.5 12V24V36L36.5 48H24.5H12.5L0.5 36V24V12L12.5 0Z" fill="#FFD639"/>
<path d="M13.5 2H24.5H35.5L46.5 13V24V35L35.5 46H24.5H13.5L2.5 35V24V13L13.5 2Z" fill="#FFEFB3"/>
<path d="M14.5 4H24.5H34.5L44.5 14V24V34L34.5 44H24.5H14.5L4.5 34V24V14L14.5 4Z" fill="#FFD639"/>
<path d="M22.5145 19.2658L24.4511 10.2282C24.4624 10.1755 24.5376 10.1755 24.5489 10.2282L26.4855 19.2658C26.4927 19.2991 26.5302 19.3157 26.5596 19.2986L30.3692 17.0763C30.4108 17.052 30.4593 17.0949 30.4403 17.1392L28.5222 21.6148C28.5104 21.6424 28.5254 21.6741 28.5542 21.6825L36.3354 23.952C36.3834 23.966 36.3834 24.034 36.3354 24.048L28.5542 26.3175C28.5254 26.3259 28.5104 26.3576 28.5222 26.3852L30.4403 30.8608C30.4593 30.9051 30.4108 30.948 30.3692 30.9237L26.5596 28.7014C26.5302 28.6843 26.4927 28.7009 26.4855 28.7342L24.5489 37.7718C24.5376 37.8245 24.4624 37.8245 24.4511 37.7718L22.5145 28.7342C22.5073 28.7009 22.4698 28.6843 22.4404 28.7014L18.6308 30.9237C18.5892 30.948 18.5407 30.9051 18.5597 30.8608L20.4778 26.3852C20.4896 26.3576 20.4746 26.3259 20.4458 26.3175L12.6646 24.048C12.6166 24.034 12.6166 23.966 12.6646 23.952L20.4458 21.6825C20.4746 21.6741 20.4896 21.6424 20.4778 21.6148L18.5597 17.1392C18.5407 17.0949 18.5892 17.052 18.6308 17.0763L22.4404 19.2986C22.4698 19.3157 22.5073 19.2991 22.5145 19.2658Z" stroke="white" stroke-width="1.6"/>
<path d="M13.5 2H35.5L34.5 4H14.5L13.5 2Z" fill="#F25964"/>
<path d="M35.5 2L46.5 13L44.5 14L34.5 4L35.5 2Z" fill="#F25964"/>
<path d="M46.5 13V35L44.5 34V14L46.5 13Z" fill="#F25964"/>
<path d="M46.5 35L35.5 46L34.5 44L44.5 34L46.5 35Z" fill="#F25964"/>
</svg>
